<?xml version="1.0" encoding="utf-8"?>
<!-- Generator: Adobe Illustrator 16.0.0, SVG Export Plug-In . SVG Version: 6.00 Build 0)  -->
<!DOCTYPE svg PUBLIC "-//W3C//DTD SVG 1.1//EN" "http://www.w3.org/Graphics/SVG/1.1/DTD/svg11.dtd">
<svg version="1.1" id="Capa_1" xmlns="http://www.w3.org/2000/svg" xmlns:xlink="http://www.w3.org/1999/xlink" x="0px" y="0px"
	 width="70px" height="110px" viewBox="0 0 70 110" enable-background="new 0 0 70 110" xml:space="preserve">
<g>
	<path fill-rule="evenodd" clip-rule="evenodd" fill="#DEE9F4" d="M31.383,94.025c9.281-0.256,18.263,3.108,20.062,7.517
		c1.801,4.407-4.266,8.188-13.547,8.444c-9.28,0.257-18.263-3.108-20.062-7.516S22.103,94.283,31.383,94.025z"/>
	<path fill-rule="evenodd" clip-rule="evenodd" fill="#DDE8F3" d="M31.532,94.211c9.158-0.249,18.011,3.064,19.777,7.402
		c1.764,4.337-4.229,8.056-13.387,8.305c-9.157,0.249-18.012-3.065-19.776-7.402C16.381,98.178,22.374,94.46,31.532,94.211z"/>
	<path fill-rule="evenodd" clip-rule="evenodd" fill="#DCE7F2" d="M31.68,94.396c9.035-0.241,17.76,3.021,19.49,7.289
		s-4.189,7.924-13.225,8.165c-9.035,0.241-17.761-3.022-19.491-7.289C16.724,98.292,22.646,94.637,31.68,94.396z"/>
	<path fill-rule="evenodd" clip-rule="evenodd" fill="#DBE6F1" d="M31.828,94.58c8.91-0.234,17.508,2.979,19.205,7.176
		c1.695,4.198-4.154,7.791-13.066,8.025c-8.91,0.234-17.508-2.979-19.204-7.177C17.068,98.407,22.917,94.814,31.828,94.58z"/>
	<path fill-rule="evenodd" clip-rule="evenodd" fill="#DAE5EF" d="M31.976,94.765c8.788-0.227,17.256,2.936,18.918,7.063
		c1.66,4.128-4.117,7.657-12.904,7.885c-8.787,0.227-17.257-2.936-18.918-7.063C17.411,98.521,23.188,94.991,31.976,94.765z"/>
	<path fill-rule="evenodd" clip-rule="evenodd" fill="#D9E4EE" d="M32.124,94.95c8.665-0.22,17.005,2.892,18.632,6.95
		c1.627,4.057-4.078,7.524-12.742,7.744c-8.665,0.219-17.006-2.893-18.632-6.95C17.755,98.636,23.46,95.169,32.124,94.95z"/>
	<path fill-rule="evenodd" clip-rule="evenodd" fill="#D8E2ED" d="M32.272,95.134c8.541-0.211,16.755,2.85,18.347,6.837
		c1.592,3.988-4.043,7.393-12.584,7.605c-8.54,0.212-16.753-2.85-18.345-6.838C18.098,98.751,23.731,95.346,32.272,95.134z"/>
	<path fill-rule="evenodd" clip-rule="evenodd" fill="#D7E1EC" d="M32.42,95.319c8.417-0.205,16.503,2.806,18.06,6.724
		s-4.004,7.26-12.422,7.464c-8.417,0.205-16.502-2.806-18.06-6.724S24.003,95.523,32.42,95.319z"/>
	<path fill-rule="evenodd" clip-rule="evenodd" fill="#D6E0EB" d="M32.568,95.504c8.295-0.197,16.252,2.763,17.773,6.61
		c1.523,3.849-3.967,7.128-12.26,7.324c-8.294,0.197-16.251-2.763-17.774-6.61C18.785,98.98,24.274,95.701,32.568,95.504z"/>
	<path fill-rule="evenodd" clip-rule="evenodd" fill="#D4DFEA" d="M32.716,95.688c8.17-0.189,16,2.72,17.489,6.498
		c1.486,3.778-3.93,6.994-12.1,7.185c-8.171,0.189-16.001-2.72-17.489-6.498C19.128,99.095,24.546,95.879,32.716,95.688z"/>
	<path fill-rule="evenodd" clip-rule="evenodd" fill="#D3DEE8" d="M32.864,95.873c8.048-0.182,15.749,2.677,17.202,6.385
		s-3.893,6.862-11.939,7.044c-8.046,0.183-15.748-2.676-17.201-6.385C19.472,99.209,24.817,96.056,32.864,95.873z"/>
	<path fill-rule="evenodd" clip-rule="evenodd" fill="#D2DDE7" d="M33.013,96.059c7.923-0.175,15.497,2.633,16.915,6.271
		c1.42,3.639-3.854,6.729-11.777,6.904c-7.923,0.175-15.497-2.633-16.916-6.271C19.815,99.324,25.089,96.232,33.013,96.059z"/>
	<path fill-rule="evenodd" clip-rule="evenodd" fill="#D1DCE6" d="M33.161,96.243c7.8-0.167,15.246,2.59,16.63,6.158
		c1.383,3.568-3.818,6.597-11.617,6.764c-7.801,0.167-15.247-2.59-16.63-6.158C20.159,99.438,25.36,96.41,33.161,96.243z"/>
	<path fill-rule="evenodd" clip-rule="evenodd" fill="#D0DBE5" d="M33.309,96.428c7.678-0.16,14.994,2.547,16.344,6.045
		c1.35,3.499-3.779,6.464-11.457,6.624c-7.676,0.159-14.993-2.547-16.343-6.046C20.502,99.554,25.632,96.588,33.309,96.428z"/>
	<path fill-rule="evenodd" clip-rule="evenodd" fill="#CFDAE4" d="M33.457,96.612c7.553-0.152,14.743,2.504,16.057,5.933
		c1.316,3.428-3.742,6.331-11.295,6.483c-7.553,0.152-14.743-2.504-16.058-5.933C20.846,99.668,25.903,96.765,33.457,96.612z"/>
	<path fill-rule="evenodd" clip-rule="evenodd" fill="#CED9E3" d="M33.604,96.797c7.431-0.145,14.491,2.461,15.772,5.819
		c1.279,3.358-3.705,6.198-11.135,6.344c-7.431,0.145-14.492-2.461-15.772-5.819C21.189,99.782,26.175,96.942,33.604,96.797z"/>
	<path fill-rule="evenodd" clip-rule="evenodd" fill="#CDD7E1" d="M33.753,96.982c7.308-0.138,14.239,2.417,15.485,5.705
		c1.246,3.289-3.668,6.066-10.975,6.204c-7.306,0.137-14.239-2.417-15.485-5.706C21.533,99.897,26.446,97.12,33.753,96.982z"/>
	<path fill-rule="evenodd" clip-rule="evenodd" fill="#CCD6E0" d="M33.901,97.167c7.183-0.13,13.988,2.374,15.199,5.593
		s-3.629,5.933-10.813,6.063c-7.183,0.131-13.988-2.373-15.199-5.593C21.876,100.012,26.718,97.297,33.901,97.167z"/>
	<path fill-rule="evenodd" clip-rule="evenodd" fill="#CBD5DF" d="M34.049,97.352c7.061-0.123,13.736,2.331,14.914,5.479
		c1.176,3.149-3.594,5.801-10.652,5.924c-7.06,0.122-13.737-2.331-14.914-5.479C22.22,100.126,26.989,97.474,34.049,97.352z"/>
	<path fill-rule="evenodd" clip-rule="evenodd" fill="#CAD4DE" d="M34.197,97.536c6.936-0.114,13.485,2.288,14.627,5.366
		c1.143,3.079-3.555,5.668-10.492,5.783c-6.936,0.115-13.484-2.287-14.626-5.366C22.563,100.241,27.26,97.651,34.197,97.536z"/>
	<path fill-rule="evenodd" clip-rule="evenodd" fill="#C9D3DD" d="M34.345,97.722c6.813-0.107,13.233,2.243,14.34,5.253
		c1.107,3.009-3.518,5.535-10.33,5.643c-6.813,0.107-13.234-2.244-14.341-5.253C22.907,100.355,27.532,97.829,34.345,97.722z"/>
	<path fill-rule="evenodd" clip-rule="evenodd" fill="#C8D2DC" d="M34.493,97.905c6.69-0.1,12.981,2.202,14.056,5.141
		c1.072,2.939-3.48,5.403-10.17,5.503c-6.69,0.101-12.983-2.201-14.056-5.14C23.25,100.47,27.803,98.006,34.493,97.905z"/>
	<path fill-rule="evenodd" clip-rule="evenodd" fill="#C7D1DB" d="M34.641,98.091c6.566-0.093,12.73,2.157,13.769,5.027
		c1.039,2.869-3.443,5.27-10.01,5.362c-6.565,0.093-12.73-2.158-13.768-5.027C23.594,100.584,28.075,98.184,34.641,98.091z"/>
	<path fill-rule="evenodd" clip-rule="evenodd" fill="#C6D0D9" d="M34.79,98.275c6.443-0.085,12.478,2.114,13.482,4.914
		c1.004,2.799-3.404,5.138-9.848,5.223c-6.442,0.085-12.479-2.115-13.483-4.914C23.938,100.699,28.347,98.361,34.79,98.275z"/>
	<path fill-rule="evenodd" clip-rule="evenodd" fill="#C5CFD8" d="M34.938,98.461c6.318-0.078,12.227,2.07,13.197,4.8
		c0.969,2.729-3.369,5.005-9.688,5.083c-6.32,0.078-12.228-2.072-13.197-4.801C24.281,100.813,28.618,98.538,34.938,98.461z"/>
	<path fill-rule="evenodd" clip-rule="evenodd" fill="#C4CED7" d="M35.086,98.645c6.195-0.069,11.977,2.028,12.91,4.688
		c0.934,2.659-3.33,4.872-9.527,4.942c-6.195,0.07-11.976-2.028-12.91-4.688C24.624,100.928,28.889,98.715,35.086,98.645z"/>
	<path fill-rule="evenodd" clip-rule="evenodd" fill="#C2CCD6" d="M35.233,98.83c6.073-0.063,11.726,1.984,12.624,4.574
		c0.9,2.59-3.293,4.739-9.365,4.803c-6.072,0.063-11.725-1.985-12.625-4.575C24.968,101.043,29.161,98.893,35.233,98.83z"/>
	<path fill-rule="evenodd" clip-rule="evenodd" fill="#C1CBD5" d="M35.382,99.015c5.948-0.056,11.474,1.941,12.339,4.462
		c0.865,2.519-3.256,4.605-9.205,4.662c-5.95,0.056-11.474-1.942-12.339-4.462C25.311,101.157,29.432,99.07,35.382,99.015z"/>
	<path fill-rule="evenodd" clip-rule="evenodd" fill="#C0CAD4" d="M35.529,99.199c5.826-0.048,11.223,1.898,12.053,4.349
		c0.83,2.449-3.219,4.474-9.045,4.521c-5.825,0.048-11.221-1.898-12.052-4.348C25.655,101.271,29.704,99.248,35.529,99.199z"/>
	<path fill-rule="evenodd" clip-rule="evenodd" fill="#BFC9D2" d="M35.678,99.384c5.703-0.04,10.971,1.855,11.766,4.235
		c0.797,2.379-3.18,4.342-8.883,4.383c-5.702,0.04-10.97-1.856-11.766-4.236C25.998,101.387,29.976,99.425,35.678,99.384z"/>
	<path fill-rule="evenodd" clip-rule="evenodd" fill="#BEC8D1" d="M35.826,99.568c5.578-0.032,10.719,1.813,11.48,4.123
		c0.762,2.309-3.145,4.208-8.723,4.241c-5.579,0.033-10.719-1.813-11.48-4.122C26.342,101.501,30.247,99.602,35.826,99.568z"/>
	<path fill-rule="evenodd" clip-rule="evenodd" fill="#BDC7D0" d="M35.974,99.754c5.456-0.026,10.468,1.769,11.194,4.009
		s-3.105,4.076-8.563,4.102c-5.455,0.025-10.466-1.77-11.193-4.009S30.519,99.779,35.974,99.754z"/>
	<path fill-rule="evenodd" clip-rule="evenodd" fill="#BCC6CF" d="M36.121,99.938c5.334-0.019,10.217,1.726,10.908,3.896
		c0.693,2.17-3.068,3.944-8.4,3.962c-5.332,0.019-10.215-1.726-10.908-3.896C27.028,101.73,30.79,99.957,36.121,99.938z"/>
	<path fill-rule="evenodd" clip-rule="evenodd" fill="#BBC5CE" d="M36.27,100.123c5.209-0.011,9.965,1.683,10.623,3.783
		c0.658,2.1-3.031,3.811-8.24,3.821c-5.208,0.011-9.965-1.683-10.623-3.783C27.372,101.846,31.061,100.134,36.27,100.123z"/>
	<path fill-rule="evenodd" clip-rule="evenodd" fill="#BAC4CD" d="M36.418,100.308c5.086-0.003,9.713,1.64,10.336,3.67
		c0.623,2.029-2.994,3.678-8.08,3.682c-5.084,0.003-9.712-1.64-10.335-3.669C27.716,101.96,31.333,100.312,36.418,100.308z"/>
	<path fill-rule="evenodd" clip-rule="evenodd" fill="#B9C3CC" d="M36.566,100.492c4.961,0.005,9.461,1.597,10.049,3.557
		c0.59,1.961-2.955,3.546-7.918,3.542c-4.961-0.004-9.461-1.597-10.049-3.557C28.059,102.074,31.604,100.489,36.566,100.492z"/>
	<path fill-rule="evenodd" clip-rule="evenodd" fill="#B8C1CA" d="M36.715,100.678c4.838,0.011,9.209,1.553,9.764,3.443
		c0.553,1.89-2.92,3.412-7.758,3.4c-4.838-0.011-9.21-1.553-9.764-3.442S31.875,100.666,36.715,100.678z"/>
	<path fill-rule="evenodd" clip-rule="evenodd" fill="#B7C0C9" d="M36.861,100.862c4.717,0.019,8.959,1.51,9.479,3.33
		s-2.881,3.28-7.598,3.262c-4.714-0.02-8.957-1.511-9.477-3.33C28.746,102.304,32.147,100.843,36.861,100.862z"/>
	<path fill-rule="evenodd" clip-rule="evenodd" fill="#B6BFC8" d="M37.01,101.047c4.592,0.027,8.707,1.467,9.193,3.218
		c0.484,1.749-2.846,3.146-7.438,3.121c-4.591-0.026-8.707-1.467-9.191-3.218C29.089,102.418,32.418,101.021,37.01,101.047z"/>
	<path fill-rule="evenodd" clip-rule="evenodd" fill="#B5BEC7" d="M37.158,101.231c4.469,0.034,8.455,1.424,8.906,3.104
		c0.449,1.68-2.807,3.015-7.275,2.98c-4.468-0.033-8.456-1.423-8.906-3.104C29.433,102.532,32.69,101.198,37.158,101.231z"/>
	<path fill-rule="evenodd" clip-rule="evenodd" fill="#B4BDC6" d="M37.307,101.416c4.346,0.042,8.203,1.381,8.619,2.991
		s-2.77,2.882-7.113,2.841c-4.345-0.041-8.205-1.38-8.62-2.99C29.776,102.647,32.961,101.375,37.307,101.416z"/>
	<path fill-rule="evenodd" clip-rule="evenodd" fill="#B3BCC5" d="M37.453,101.602c4.223,0.049,7.953,1.337,8.334,2.878
		c0.383,1.54-2.73,2.749-6.953,2.7c-4.221-0.049-7.952-1.337-8.333-2.877C30.12,102.762,33.233,101.553,37.453,101.602z"/>
	<path fill-rule="evenodd" clip-rule="evenodd" fill="#B2BBC3" d="M37.602,101.786c4.1,0.056,7.701,1.294,8.049,2.765
		c0.346,1.471-2.695,2.617-6.793,2.561c-4.098-0.056-7.701-1.294-8.047-2.765C30.463,102.876,33.504,101.729,37.602,101.786z"/>
	<path fill-rule="evenodd" clip-rule="evenodd" fill="#B0BAC2" d="M37.75,101.971c3.975,0.064,7.449,1.251,7.762,2.652
		c0.313,1.399-2.656,2.483-6.631,2.42c-3.975-0.063-7.45-1.251-7.762-2.651S33.776,101.907,37.75,101.971z"/>
	<path fill-rule="evenodd" clip-rule="evenodd" fill="#AFB9C1" d="M37.898,102.155c3.852,0.072,7.199,1.208,7.475,2.539
		c0.279,1.33-2.619,2.352-6.471,2.28c-3.85-0.071-7.198-1.208-7.475-2.538C31.15,103.105,34.047,102.084,37.898,102.155z"/>
	<path fill-rule="evenodd" clip-rule="evenodd" fill="#AEB8C0" d="M38.047,102.341c3.729,0.078,6.947,1.164,7.189,2.425
		s-2.582,2.219-6.311,2.141c-3.728-0.078-6.946-1.164-7.189-2.426C31.494,103.22,34.319,102.262,38.047,102.341z"/>
	<path fill-rule="evenodd" clip-rule="evenodd" fill="#ADB6BF" d="M38.195,102.525c3.604,0.086,6.695,1.121,6.902,2.312
		c0.209,1.191-2.545,2.087-6.148,2.001c-3.605-0.086-6.696-1.121-6.904-2.313C31.837,103.335,34.59,102.439,38.195,102.525z"/>
	<path fill-rule="evenodd" clip-rule="evenodd" fill="#ACB5BE" d="M38.342,102.71c3.482,0.094,6.445,1.078,6.617,2.199
		c0.174,1.12-2.506,1.953-5.986,1.859c-3.482-0.093-6.445-1.077-6.618-2.198C32.181,103.449,34.862,102.617,38.342,102.71z"/>
	<path fill-rule="evenodd" clip-rule="evenodd" fill="#ABB4BC" d="M38.49,102.895c3.357,0.102,6.193,1.035,6.332,2.086
		s-2.471,1.821-5.828,1.721s-6.192-1.035-6.331-2.086C32.524,103.563,35.133,102.794,38.49,102.895z"/>
	<path fill-rule="evenodd" clip-rule="evenodd" fill="#AAB3BB" d="M38.639,103.08c3.234,0.107,5.941,0.991,6.045,1.972
		c0.105,0.981-2.432,1.688-5.666,1.581c-3.234-0.109-5.941-0.992-6.045-1.974C32.868,103.679,35.404,102.972,38.639,103.08z"/>
	<path fill-rule="evenodd" clip-rule="evenodd" fill="#A9B2BA" d="M38.787,103.265c3.111,0.115,5.689,0.948,5.76,1.859
		c0.068,0.911-2.396,1.556-5.506,1.439c-3.111-0.115-5.69-0.948-5.76-1.859C33.211,103.793,35.676,103.148,38.787,103.265z"/>
	<path fill-rule="evenodd" clip-rule="evenodd" fill="#A8B1B9" d="M38.936,103.449c2.986,0.123,5.438,0.905,5.473,1.747
		c0.035,0.841-2.357,1.423-5.346,1.299c-2.986-0.123-5.438-0.904-5.473-1.746C33.554,103.908,35.947,103.326,38.936,103.449z"/>
</g>
<path fill-rule="evenodd" clip-rule="evenodd" fill="#2B7396" d="M34.999,0.228c-19.33,0-35,15.67-35,35
	c0,4.104,1.411,11.623,3.396,15.059l31.603,54.687l31.458-54.385c1.805-3.12,3.541-11.256,3.541-15.36
	C69.998,15.897,54.328,0.228,34.999,0.228z"/>
<path fill-rule="evenodd" clip-rule="evenodd" fill="#3A9AC8" d="M34.999,104.973l31.458-54.385C68.262,47.468,70,39.332,70,35.228
	c0-19.329-15.672-35-35.001-35V104.973z"/>
<path fill-rule="evenodd" clip-rule="evenodd" fill="#FFFFFF" d="M34.999,63.957c15.823,0,28.729-12.905,28.729-28.729
	c0-15.823-12.906-28.729-28.729-28.729C19.175,6.498,6.27,19.404,6.27,35.228C6.27,51.052,19.175,63.957,34.999,63.957z"/>
<g>
	<linearGradient id="SVGID_1_" gradientUnits="userSpaceOnUse" x1="34.6924" y1="36.0693" x2="49.9502" y2="36.0693">
		<stop  offset="0" style="stop-color:#FF7C00"/>
		<stop  offset="0.9946" style="stop-color:#6B2A37"/>
	</linearGradient>
	<polygon fill="url(#SVGID_1_)" points="49.95,47.5 34.692,41.125 34.692,24.638 	"/>
	<linearGradient id="SVGID_2_" gradientUnits="userSpaceOnUse" x1="19.5459" y1="36.0693" x2="34.8022" y2="36.0693">
		<stop  offset="0" style="stop-color:#FF4C89"/>
		<stop  offset="0.9946" style="stop-color:#FF7C00"/>
	</linearGradient>
	<polygon fill="url(#SVGID_2_)" points="19.546,47.5 34.802,41.125 34.802,24.638 	"/>
	
		<linearGradient id="SVGID_3_" gradientUnits="userSpaceOnUse" x1="134.7549" y1="203.1973" x2="150.0127" y2="203.1973" gradientTransform="matrix(-1 0 0 -1 184.7051 236.3867)">
		<stop  offset="0" style="stop-color:#B8D7FF"/>
		<stop  offset="1" style="stop-color:#00A4C6"/>
	</linearGradient>
	<polygon fill="url(#SVGID_3_)" points="34.692,24.638 49.95,47.5 34.692,18.88 	"/>
	
		<linearGradient id="SVGID_4_" gradientUnits="userSpaceOnUse" x1="150.0127" y1="203.1973" x2="165.2686" y2="203.1973" gradientTransform="matrix(-1 0 0 -1 184.7051 236.3867)">
		<stop  offset="0" style="stop-color:#B8D7FF"/>
		<stop  offset="1" style="stop-color:#00A4C6"/>
	</linearGradient>
	<polygon fill="url(#SVGID_4_)" points="34.692,18.88 19.436,47.5 34.692,24.638 	"/>
	<linearGradient id="SVGID_5_" gradientUnits="userSpaceOnUse" x1="19.436" y1="36.0693" x2="34.6924" y2="36.0693">
		<stop  offset="0" style="stop-color:#FF7C00"/>
		<stop  offset="0.9946" style="stop-color:#E56500"/>
	</linearGradient>
	<polygon fill="url(#SVGID_5_)" points="19.436,47.5 24.218,45.516 34.692,29.805 34.692,24.638 	"/>
</g>
</svg>
